<?xml version="1.0" encoding="UTF-8"?>
<svg xmlns="http://www.w3.org/2000/svg" viewBox="0 0 640 360">
  <rect width="640" height="360" rx="16" fill="#0a0a0c"/>
  <rect x="40" y="80" width="560" height="180" rx="12" fill="#14141c" stroke="#3498db" stroke-width="2"/>
  <g fill="#181820" stroke="#3498db" stroke-width="1.5">
    <rect x="60" y="100" width="36" height="36" rx="4"/><rect x="100" y="100" width="36" height="36" rx="4"/>
    <rect x="140" y="100" width="36" height="36" rx="4"/><rect x="180" y="100" width="36" height="36" rx="4"/>
    <rect x="220" y="100" width="36" height="36" rx="4"/><rect x="260" y="100" width="36" height="36" rx="4"/>
    <rect x="300" y="100" width="36" height="36" rx="4"/><rect x="340" y="100" width="36" height="36" rx="4"/>
    <rect x="380" y="100" width="36" height="36" rx="4"/><rect x="420" y="100" width="36" height="36" rx="4"/>
    <rect x="460" y="100" width="36" height="36" rx="4"/><rect x="500" y="100" width="36" height="36" rx="4"/>
    <rect x="540" y="100" width="36" height="36" rx="4"/>
    <rect x="80" y="144" width="36" height="36" rx="4"/><rect x="120" y="144" width="36" height="36" rx="4"/>
    <rect x="160" y="144" width="36" height="36" rx="4"/><rect x="200" y="144" width="36" height="36" rx="4"/>
    <rect x="240" y="144" width="36" height="36" rx="4"/><rect x="280" y="144" width="36" height="36" rx="4"/>
    <rect x="320" y="144" width="36" height="36" rx="4"/><rect x="360" y="144" width="36" height="36" rx="4"/>
    <rect x="400" y="144" width="36" height="36" rx="4"/><rect x="440" y="144" width="36" height="36" rx="4"/>
    <rect x="480" y="144" width="36" height="36" rx="4"/><rect x="520" y="144" width="36" height="36" rx="4"/>
    <rect x="120" y="188" width="400" height="36" rx="4" fill="#181820" stroke="#3498db"/>
  </g>
  <rect x="60" y="100" width="36" height="36" rx="4" fill="#3498db" opacity="0.35"/>
  <rect x="220" y="100" width="36" height="36" rx="4" fill="#e02626" opacity="0.35"/>
  <rect x="380" y="100" width="36" height="36" rx="4" fill="#2ecc71" opacity="0.35"/>
  <text x="320" y="50" text-anchor="middle" fill="#9090a0" font-family="Segoe UI,sans-serif" font-size="18">Clavier RGB — Aperçu</text>
</svg>
