<?xml version="1.0" encoding="UTF-8"?>
<svg xmlns="http://www.w3.org/2000/svg" viewBox="0 0 560 200">
  <rect width="560" height="200" rx="12" fill="#14141c" stroke="#3498db" stroke-width="2"/>
  <g fill="#181820" stroke="#3498db" stroke-width="1.5">
    <rect x="20" y="60" width="32" height="32" rx="4"/><rect x="56" y="60" width="32" height="32" rx="4"/>
    <rect x="92" y="60" width="32" height="32" rx="4"/><rect x="128" y="60" width="32" height="32" rx="4"/>
    <rect x="164" y="60" width="32" height="32" rx="4"/><rect x="200" y="60" width="32" height="32" rx="4"/>
    <rect x="236" y="60" width="32" height="32" rx="4"/><rect x="272" y="60" width="32" height="32" rx="4"/>
    <rect x="308" y="60" width="32" height="32" rx="4"/><rect x="344" y="60" width="32" height="32" rx="4"/>
    <rect x="380" y="60" width="32" height="32" rx="4"/><rect x="416" y="60" width="32" height="32" rx="4"/>
    <rect x="452" y="60" width="32" height="32" rx="4"/><rect x="488" y="60" width="32" height="32" rx="4"/>
    <rect x="44" y="100" width="32" height="32" rx="4"/><rect x="80" y="100" width="32" height="32" rx="4"/>
    <rect x="116" y="100" width="32" height="32" rx="4"/><rect x="152" y="100" width="32" height="32" rx="4"/>
    <rect x="188" y="100" width="32" height="32" rx="4"/><rect x="224" y="100" width="32" height="32" rx="4"/>
    <rect x="260" y="100" width="32" height="32" rx="4"/><rect x="296" y="100" width="32" height="32" rx="4"/>
    <rect x="332" y="100" width="32" height="32" rx="4"/><rect x="368" y="100" width="32" height="32" rx="4"/>
    <rect x="404" y="100" width="32" height="32" rx="4"/><rect x="440" y="100" width="32" height="32" rx="4"/>
    <rect x="80" y="140" width="320" height="32" rx="4"/>
  </g>
</svg>
