<?xml version="1.0" encoding="UTF-8"?>
<svg xmlns="http://www.w3.org/2000/svg" viewBox="0 0 1920 1080">
  <defs>
    <linearGradient id="bg" x1="0" y1="0" x2="1" y2="1">
      <stop offset="0%" stop-color="#12141c"/>
      <stop offset="100%" stop-color="#080810"/>
    </linearGradient>
    <linearGradient id="shell" x1="0.5" y1="0" x2="0.5" y2="1">
      <stop offset="0%" stop-color="#484858"/>
      <stop offset="35%" stop-color="#2a2a36"/>
      <stop offset="100%" stop-color="#12121a"/>
    </linearGradient>
    <linearGradient id="ridge" x1="0" y1="0" x2="0" y2="1">
      <stop offset="0%" stop-color="#606070"/>
      <stop offset="100%" stop-color="#303040"/>
    </linearGradient>
    <linearGradient id="accent" x1="0" y1="0" x2="1" y2="1">
      <stop offset="0%" stop-color="#5dade2"/>
      <stop offset="100%" stop-color="#3498db"/>
    </linearGradient>
    <radialGradient id="glow" cx="50%" cy="35%" r="55%">
      <stop offset="0%" stop-color="#3498db" stop-opacity="0.18"/>
      <stop offset="100%" stop-color="#3498db" stop-opacity="0"/>
    </radialGradient>
    <filter id="shadow" x="-20%" y="-20%" width="140%" height="140%">
      <feDropShadow dx="0" dy="18" stdDeviation="24" flood-color="#000000" flood-opacity="0.55"/>
    </filter>
  </defs>
  <rect width="1920" height="1080" fill="url(#bg)"/>
  <rect width="1920" height="1080" fill="url(#glow)"/>
  <ellipse cx="960" cy="920" rx="420" ry="70" fill="#000000" opacity="0.35"/>
  <g filter="url(#shadow)">
    <path d="M960 180 C1180 180 1320 300 1320 520 C1320 720 1180 860 960 880 C740 860 600 720 600 520 C600 300 740 180 960 180 Z" fill="url(#shell)" stroke="url(#accent)" stroke-width="6"/>
    <path d="M960 210 C1140 210 1260 320 1260 520 C1260 690 1140 810 960 828 C780 810 660 690 660 520 C660 320 780 210 960 210 Z" fill="#181820" opacity="0.55"/>
    <line x1="960" y1="230" x2="960" y2="560" stroke="url(#ridge)" stroke-width="8" stroke-linecap="round"/>
    <ellipse cx="960" cy="420" rx="52" ry="88" fill="#101018" stroke="#606070" stroke-width="4"/>
    <ellipse cx="960" cy="420" rx="28" ry="48" fill="#080810" stroke="#3498db" stroke-width="2" opacity="0.7"/>
    <path d="M660 320 C720 280 860 260 940 260 L940 520 C860 520 720 500 660 460 Z" fill="#22222e" stroke="#404050" stroke-width="3"/>
    <path d="M980 260 C1060 260 1200 280 1260 320 L1260 460 C1200 500 1060 520 980 520 Z" fill="#22222e" stroke="#404050" stroke-width="3"/>
    <rect x="548" y="390" width="88" height="110" rx="16" fill="#14141c" stroke="#ff8c2a" stroke-width="5"/>
    <text x="592" y="458" text-anchor="middle" font-family="Segoe UI,sans-serif" font-size="42" font-weight="800" fill="#ff8c2a">L1</text>
    <rect x="548" y="520" width="88" height="110" rx="16" fill="#14141c" stroke="#ff8c2a" stroke-width="5"/>
    <text x="592" y="588" text-anchor="middle" font-family="Segoe UI,sans-serif" font-size="42" font-weight="800" fill="#ff8c2a">L2</text>
    <circle cx="960" cy="680" r="72" fill="#101018" stroke="#3498db" stroke-width="3" opacity="0.8"/>
    <path d="M960 630 C990 630 1010 650 1010 680 C1010 710 990 730 960 730 C930 730 910 710 910 680 C910 650 930 630 960 630 Z" fill="#3498db" opacity="0.25"/>
  </g>
  <rect x="700" y="800" width="520" height="12" rx="6" fill="url(#accent)" opacity="0.85"/>
  <text x="960" y="980" text-anchor="middle" font-family="Segoe UI,sans-serif" font-size="56" font-weight="800" fill="url(#accent)">ELITE M40</text>
  <text x="960" y="1020" text-anchor="middle" font-family="Segoe UI,sans-serif" font-size="24" font-weight="600" fill="#707080" letter-spacing="8">SKULL EDITION</text>
</svg>
