<?xml version="1.0" encoding="UTF-8"?>
<svg xmlns="http://www.w3.org/2000/svg" viewBox="0 0 64 64">
  <rect width="64" height="64" rx="12" fill="#101016"/>
  <rect x="6" y="22" width="52" height="20" rx="4" fill="#181820" stroke="#3498db" stroke-width="2"/>
  <g fill="#14141c" stroke="#3498db" stroke-width="1">
    <rect x="10" y="26" width="6" height="6" rx="1"/><rect x="18" y="26" width="6" height="6" rx="1"/>
    <rect x="26" y="26" width="6" height="6" rx="1"/><rect x="34" y="26" width="6" height="6" rx="1"/>
    <rect x="42" y="26" width="6" height="6" rx="1"/><rect x="50" y="26" width="6" height="6" rx="1"/>
    <rect x="14" y="34" width="6" height="6" rx="1"/><rect x="22" y="34" width="6" height="6" rx="1"/>
    <rect x="30" y="34" width="6" height="6" rx="1"/><rect x="38" y="34" width="6" height="6" rx="1"/>
    <rect x="46" y="34" width="6" height="6" rx="1"/>
  </g>
  <rect x="6" y="22" width="52" height="3" rx="1" fill="#3498db" opacity="0.7"/>
</svg>
